<?xml version="1.0" standalone="no"?>
<!DOCTYPE svg PUBLIC "-//W3C//DTD SVG 20010904//EN"
 "http://www.w3.org/TR/2001/REC-SVG-20010904/DTD/svg10.dtd">
<svg version="1.0" xmlns="http://www.w3.org/2000/svg"
 width="1248.000000pt" height="509.000000pt" viewBox="0 0 1248.000000 509.000000"
 preserveAspectRatio="xMidYMid meet">

<g transform="translate(0.000000,509.000000) scale(0.100000,-0.100000)"
fill="#000000" stroke="none">
<path d="M0 2545 l0 -2545 6240 0 6240 0 0 2545 0 2545 -6240 0 -6240 0 0
-2545z m3046 1525 c259 -39 447 -99 664 -211 514 -264 856 -677 965 -1169 37
-168 30 -422 -17 -580 -83 -281 -290 -572 -513 -722 -319 -213 -725 -340
-1090 -342 -355 -1 -807 106 -1095 261 -249 133 -497 345 -661 563 -86 114
-191 314 -233 442 -166 512 -4 1038 429 1394 179 147 455 278 702 333 92 21
262 47 348 55 105 8 367 -4 501 -24z m3328 -153 l99 -92 -34 -3 c-19 -2 -74
-2 -124 0 -77 3 -96 7 -132 30 l-42 28 -56 -30 c-53 -28 -64 -30 -167 -30 -60
0 -108 4 -106 8 2 5 45 47 97 95 106 98 106 98 266 90 l99 -5 100 -91z m-79
-172 c175 -37 327 -155 403 -315 49 -104 62 -163 62 -288 0 -180 -56 -320
-173 -436 -123 -122 -261 -176 -451 -176 -123 0 -202 18 -304 67 -357 175
-436 700 -147 988 88 88 187 139 330 169 48 10 216 4 280 -9z m3813 -1 c84
-17 197 -68 252 -113 l34 -29 -19 -35 c-10 -19 -33 -55 -51 -80 -44 -61 -70
-64 -155 -21 -146 75 -275 81 -392 20 -114 -58 -177 -180 -177 -339 0 -197 88
-339 238 -382 62 -19 186 -16 255 5 l37 11 0 89 0 90 -74 0 c-95 0 -100 6
-104 122 l-4 88 221 0 221 0 0 -250 c0 -290 8 -268 -114 -326 -104 -50 -212
-67 -371 -61 -105 3 -143 9 -196 29 -99 37 -157 74 -229 147 -118 119 -170
255 -170 442 0 278 128 469 380 569 103 41 284 52 418 24z m-2925 -16 c12 -13
103 -186 202 -385 99 -198 182 -361 185 -361 3 0 88 166 190 370 102 203 194
376 205 384 14 10 54 14 152 14 l133 0 0 -605 0 -605 -125 0 -125 0 0 387 c0
327 -2 384 -13 368 -8 -11 -76 -141 -152 -290 -76 -148 -147 -282 -157 -297
-39 -56 -171 -59 -212 -5 -10 14 -84 153 -163 309 -80 155 -149 287 -154 292
-5 6 -9 -151 -9 -377 l0 -387 -125 0 -125 0 0 605 0 605 135 0 c128 0 137 -1
158 -22z m2037 -88 l0 -110 -245 0 -245 0 0 -140 0 -140 190 0 191 0 -3 -102
-3 -103 -187 -3 -188 -2 0 -140 0 -140 245 0 245 0 0 -110 0 -110 -390 0 -390
0 0 605 0 605 390 0 390 0 0 -110z m1997 93 c3 -10 35 -92 70 -183 66 -167
216 -557 324 -838 32 -84 61 -157 64 -162 4 -6 -42 -10 -124 -10 -166 0 -170
3 -221 156 l-37 109 -228 0 -228 0 -36 -107 c-51 -152 -51 -152 -213 -156
l-131 -4 6 24 c2 13 48 136 102 273 53 138 150 388 215 556 65 168 124 317
131 332 l12 27 144 0 c128 0 144 -2 150 -17z m-1377 -1624 c0 -220 -3 -280
-12 -277 -10 4 -14 71 -16 281 -2 242 0 277 13 277 13 0 15 -37 15 -281z
m-2311 245 c-31 -33 -86 -67 -101 -62 -15 5 88 88 110 88 12 0 10 -6 -9 -26z
m-1801 -154 c10 -16 47 -95 83 -175 35 -79 68 -143 73 -142 4 2 18 27 31 57
49 120 134 290 145 290 16 0 8 -22 -71 -195 -111 -241 -106 -236 -148 -143
-74 162 -151 333 -151 335 0 2 5 3 10 3 6 0 18 -13 28 -30z m1043 19 c54 -17
99 -67 115 -130 8 -29 12 -55 9 -57 -3 -3 -80 -5 -172 -6 l-168 -1 3 -30 c8
-74 81 -135 161 -135 43 0 110 23 122 42 4 6 12 7 19 3 18 -11 -15 -41 -66
-61 -85 -32 -202 4 -238 75 -58 111 -26 239 72 291 42 22 88 25 143 9z m697
-130 c4 -148 -5 -259 -19 -259 -5 0 -9 85 -9 201 0 156 3 200 13 197 8 -3 13
-43 15 -139z m820 121 c39 -18 62 -44 49 -56 -3 -3 -19 4 -36 17 -46 34 -128
38 -179 9 -113 -64 -109 -252 7 -305 51 -23 126 -17 169 13 34 24 56 29 50 10
-8 -23 -69 -57 -114 -64 -92 -13 -188 41 -214 122 -19 56 -9 145 22 192 50 76
157 103 246 62z m624 -127 c4 -159 9 -178 59 -207 38 -22 116 -21 156 4 55 33
66 69 71 218 4 124 14 163 28 108 3 -13 4 -101 2 -196 -2 -127 -6 -174 -15
-178 -9 -2 -13 9 -13 40 l0 43 -26 -29 c-54 -57 -136 -71 -209 -36 -69 33 -79
62 -83 233 -3 125 -2 147 11 147 12 0 16 -26 19 -147z m1730 135 c69 -20 128
-107 128 -188 0 -140 -141 -237 -268 -185 -129 54 -162 218 -67 324 51 56 125
74 207 49z m851 -4 c26 -9 47 -19 47 -23 0 -18 -15 -19 -49 -5 -80 34 -167 15
-193 -42 -10 -20 -8 -29 9 -52 15 -21 38 -32 102 -48 106 -27 128 -40 141 -80
32 -95 -82 -160 -214 -123 -51 14 -90 39 -78 51 5 5 27 0 53 -11 85 -39 199
-21 213 34 13 50 -28 86 -114 100 -78 13 -121 35 -136 70 -43 104 81 176 219
129z m182 -634 c-9 -14 -6141 -14 -6150 0 -4 7 1023 10 3075 10 2052 0 3079
-3 3075 -10z m-5657 -181 c34 -17 62 -34 62 -39 0 -4 -8 -18 -18 -30 l-18 -23
-66 27 c-82 32 -128 33 -195 2 -113 -53 -155 -205 -92 -333 54 -108 170 -139
292 -79 l59 28 21 -20 c21 -21 21 -21 1 -43 -27 -30 -80 -55 -147 -69 -95 -19
-197 12 -264 82 -122 127 -100 385 42 479 59 39 91 47 181 48 71 1 88 -3 142
-30z m564 7 c52 -25 107 -82 131 -135 28 -63 34 -181 13 -253 -40 -138 -190
-227 -333 -198 -161 33 -244 139 -243 308 1 42 7 94 14 115 29 81 101 155 172
177 49 16 204 7 246 -14z m346 15 c7 -4 60 -91 117 -192 57 -101 108 -191 113
-199 7 -12 14 -5 32 30 12 25 63 118 113 208 l91 162 43 0 43 0 -2 -302 -3
-303 -35 0 -35 0 -5 228 -5 229 -100 -186 c-95 -177 -101 -185 -130 -185 -28
-1 -34 7 -89 107 -104 188 -141 252 -148 252 -4 0 -9 -100 -10 -222 l-3 -223
-33 0 -33 0 0 295 c0 162 0 298 0 303 1 10 63 9 79 -2z m1060 -28 l-3 -38
-137 -3 -138 -3 0 -94 0 -95 116 0 115 0 -3 -32 -3 -33 -112 -3 -113 -3 0 -99
0 -100 141 0 140 0 -3 -32 -3 -33 -180 0 -180 0 -3 303 -2 302 185 0 186 0 -3
-37z m182 24 c9 -7 90 -109 180 -227 l165 -214 3 227 2 227 35 0 35 0 0 -299
c0 -298 0 -299 -22 -304 -36 -10 -19 -30 -278 308 l-105 137 -5 -224 -5 -223
-35 1 -35 0 -3 220 c-2 120 0 256 3 302 6 76 8 82 28 82 12 0 29 -6 37 -13z
m933 -21 c67 -32 110 -81 138 -156 44 -115 7 -279 -79 -350 -62 -51 -119 -65
-277 -65 l-140 0 -3 304 -2 303 153 -4 c143 -4 157 -6 210 -32z m621 -262
c127 -316 127 -318 61 -311 -27 3 -32 10 -60 83 l-31 79 -131 3 -131 3 -31
-80 c-31 -76 -34 -79 -69 -84 -20 -2 -40 -1 -44 2 -6 5 42 130 222 579 8 18
17 22 53 22 l43 0 118 -296z m558 263 c109 -54 163 -155 156 -292 -12 -213
-151 -304 -432 -280 l-86 7 0 300 0 300 153 -3 c143 -4 155 -6 209 -32z m663
7 c104 -48 160 -147 159 -279 -1 -147 -69 -251 -189 -290 -153 -50 -304 6
-373 139 -23 45 -26 63 -26 146 0 107 17 158 75 225 52 59 118 85 217 85 69 0
93 -4 137 -26z m535 15 c164 -35 185 -239 32 -318 l-32 -17 90 -122 c49 -67
90 -126 90 -132 0 -18 -66 -11 -93 10 -14 11 -57 65 -96 119 -39 55 -74 102
-79 105 -4 2 -24 7 -44 11 l-37 7 -3 -128 -3 -129 -40 0 -40 0 -3 303 -2 302
104 0 c58 0 128 -5 156 -11z"/>
<path d="M2680 3994 c-292 -25 -633 -150 -833 -306 -92 -71 -245 -230 -253
-262 -10 -40 17 -70 103 -114 176 -90 283 -156 745 -461 601 -397 625 -413
776 -508 l146 -93 66 0 c82 0 100 9 325 150 99 62 250 157 336 211 188 118
338 199 367 199 13 0 22 -6 22 -15 0 -19 -121 -186 -260 -361 -57 -71 -175
-226 -263 -344 -338 -454 -489 -653 -586 -775 -56 -69 -101 -131 -101 -138 1
-37 15 -41 112 -29 555 68 955 404 1112 935 41 139 51 213 50 372 -1 207 -32
360 -110 542 -134 316 -414 606 -764 790 -156 83 -374 154 -570 188 -86 14
-338 26 -420 19z"/>
<path d="M1497 3280 c-94 -111 -130 -451 -78 -720 110 -564 421 -1020 846
-1239 154 -79 401 -152 618 -181 85 -11 276 -14 301 -4 30 12 16 52 -44 128
-33 42 -175 230 -316 418 -140 189 -270 363 -289 388 -19 25 -148 198 -288
385 -251 335 -386 515 -411 545 -7 9 -53 70 -103 136 -50 66 -105 133 -123
147 -43 36 -81 35 -113 -3z"/>
<path d="M6044 3517 c-102 -26 -175 -94 -216 -200 -19 -52 -23 -80 -22 -177 0
-135 20 -200 83 -272 60 -67 118 -92 228 -96 123 -5 178 13 248 82 80 78 100
138 99 296 0 112 -3 131 -26 181 -54 119 -147 184 -275 194 -40 2 -89 -1 -119
-8z"/>
<path d="M11056 3459 c-89 -268 -146 -440 -146 -444 0 -3 70 -5 155 -5 85 0
155 1 155 3 0 8 -151 451 -155 455 -3 3 -7 -1 -9 -9z"/>
<path d="M6630 2177 c-34 -22 -62 -62 -75 -104 l-6 -23 160 0 159 0 -10 38
c-26 98 -146 145 -228 89z"/>
<path d="M10495 2182 c-42 -27 -60 -51 -75 -96 -36 -111 39 -226 147 -226 111
0 181 79 171 191 -9 88 -65 141 -155 146 -45 3 -65 0 -88 -15z"/>
<path d="M6374 1347 c-88 -36 -135 -107 -136 -211 -2 -115 36 -185 120 -224
65 -29 129 -26 195 10 130 72 132 328 2 404 -51 30 -135 40 -181 21z"/>
<path d="M8857 1353 l-37 -4 2 -227 3 -227 70 -3 c171 -7 260 63 273 214 8
102 -36 193 -113 232 -24 12 -145 21 -198 15z"/>
<path d="M9553 1303 c-3 -10 -26 -67 -49 -128 -24 -60 -44 -113 -44 -117 0 -4
45 -8 100 -8 78 0 100 3 100 14 0 7 -13 47 -29 87 -16 41 -37 95 -46 122 -20
52 -23 55 -32 30z"/>
<path d="M10043 1353 l-43 -4 0 -230 0 -229 70 0 c38 0 92 5 119 11 215 46
216 402 2 448 -51 11 -65 11 -148 4z"/>
<path d="M10746 1353 c-40 -6 -118 -88 -134 -139 -28 -96 -2 -215 59 -271 28
-25 99 -53 137 -53 88 0 170 62 196 149 19 65 20 93 4 161 -27 116 -124 173
-262 153z"/>
<path d="M11310 1250 l0 -112 74 4 c86 4 125 25 140 77 12 42 -3 89 -37 115
-21 15 -47 22 -103 24 l-74 4 0 -112z"/>
</g>
</svg>
